<svg width="128" height="25" viewBox="0 0 128 25" fill="none" xmlns="http://www.w3.org/2000/svg">
<path fill-rule="evenodd" clip-rule="evenodd" d="M1 3.67772C1 3.19026 1.19365 2.72275 1.53834 2.37806C1.88303 2.03337 2.35053 1.83972 2.838 1.83972H21.16C21.4016 1.83933 21.6409 1.88659 21.8641 1.97879C22.0874 2.07099 22.2903 2.20633 22.4612 2.37706C22.6322 2.54779 22.7677 2.75055 22.8602 2.97373C22.9526 3.19692 23.0001 3.43615 23 3.67772V21.9997C23.0003 22.2413 22.9529 22.4806 22.8606 22.7039C22.7683 22.9272 22.6328 23.1301 22.462 23.301C22.2912 23.4719 22.0884 23.6075 21.8651 23.6999C21.6419 23.7923 21.4026 23.8399 21.161 23.8397H2.838C2.59655 23.8397 2.35746 23.7921 2.1344 23.6997C1.91134 23.6073 1.70867 23.4718 1.53798 23.301C1.3673 23.1303 1.23193 22.9275 1.13962 22.7044C1.04731 22.4813 0.999869 22.2422 1 22.0007V3.67772ZM9.708 10.2277H12.687V11.7237C13.117 10.8637 14.217 10.0897 15.87 10.0897C19.039 10.0897 19.79 11.8027 19.79 14.9457V20.7677H16.583V15.6617C16.583 13.8717 16.153 12.8617 15.061 12.8617C13.546 12.8617 12.916 13.9507 12.916 15.6617V20.7677H9.708V10.2277ZM4.208 20.6307H7.416V10.0897H4.208V20.6297V20.6307ZM7.875 6.65172C7.88105 6.9264 7.83217 7.19951 7.73124 7.45504C7.63031 7.71057 7.47935 7.94336 7.28723 8.13976C7.09511 8.33615 6.8657 8.4922 6.61246 8.59873C6.35921 8.70526 6.08724 8.76014 5.8125 8.76014C5.53776 8.76014 5.26579 8.70526 5.01255 8.59873C4.7593 8.4922 4.52989 8.33615 4.33777 8.13976C4.14565 7.94336 3.99469 7.71057 3.89376 7.45504C3.79283 7.19951 3.74395 6.9264 3.75 6.65172C3.76187 6.11258 3.98439 5.59952 4.36989 5.22241C4.75539 4.84531 5.27322 4.63414 5.8125 4.63414C6.35178 4.63414 6.86961 4.84531 7.25512 5.22241C7.64062 5.59952 7.86313 6.11258 7.875 6.65172Z" fill="#E94444"/>
<g clip-path="url(#clip0_17_66)">
<path d="M58.3095 5.77668C57.4745 6.14668 56.5775 6.39668 55.6345 6.50968C56.6075 5.92747 57.3355 5.01114 57.6825 3.93168C56.7684 4.47467 55.7679 4.85687 54.7245 5.06168C54.0229 4.31254 53.0936 3.816 52.0808 3.64915C51.0681 3.4823 50.0286 3.65447 49.1238 4.13893C48.2189 4.62339 47.4993 5.39304 47.0767 6.32838C46.654 7.26372 46.5521 8.31243 46.7865 9.31168C44.9342 9.21867 43.1221 8.73723 41.4679 7.89858C39.8137 7.05994 38.3544 5.88284 37.1845 4.44368C36.7845 5.13368 36.5545 5.93368 36.5545 6.78568C36.5541 7.55267 36.7429 8.30792 37.1044 8.98441C37.4658 9.6609 37.9887 10.2377 38.6265 10.6637C37.8868 10.6401 37.1634 10.4403 36.5165 10.0807V10.1407C36.5164 11.2164 36.8885 12.2591 37.5697 13.0917C38.2508 13.9243 39.1991 14.4956 40.2535 14.7087C39.5673 14.8944 38.8479 14.9217 38.1495 14.7887C38.447 15.7143 39.0265 16.5237 39.8069 17.1036C40.5873 17.6835 41.5294 18.0049 42.5015 18.0227C40.8513 19.3181 38.8134 20.0208 36.7155 20.0177C36.3439 20.0178 35.9726 19.9961 35.6035 19.9527C37.733 21.3219 40.2119 22.0485 42.7435 22.0457C51.3135 22.0457 55.9985 14.9477 55.9985 8.79168C55.9985 8.59168 55.9935 8.38968 55.9845 8.18968C56.8958 7.53065 57.6824 6.71457 58.3075 5.77968L58.3095 5.77668Z" fill="#E94444"/>
</g>
<g clip-path="url(#clip1_17_66)">
<path fill-rule="evenodd" clip-rule="evenodd" d="M69.3335 12.9067C69.3335 18.8727 73.6665 23.8337 79.3335 24.8397V16.1727H76.3335V12.8397H79.3335V10.1727C79.3335 7.17272 81.2665 5.50672 84.0005 5.50672C84.8665 5.50672 85.8005 5.63972 86.6665 5.77272V8.83972H85.1335C83.6665 8.83972 83.3335 9.57272 83.3335 10.5067V12.8397H86.5335L86.0005 16.1727H83.3335V24.8397C89.0005 23.8337 93.3335 18.8737 93.3335 12.9067C93.3335 6.26972 87.9335 0.839722 81.3335 0.839722C74.7335 0.839722 69.3335 6.26972 69.3335 12.9067Z" fill="#E94444"/>
</g>
<path fill-rule="evenodd" clip-rule="evenodd" d="M111.465 1.90572C112.638 1.85172 113.012 1.83972 116 1.83972C118.988 1.83972 119.362 1.85272 120.534 1.90572C121.706 1.95872 122.506 2.14572 123.206 2.41672C123.939 2.69372 124.604 3.12672 125.154 3.68672C125.714 4.23572 126.146 4.89972 126.422 5.63372C126.694 6.33372 126.88 7.13372 126.934 8.30372C126.988 9.47872 127 9.85272 127 12.8397C127 15.8277 126.987 16.2017 126.934 17.3747C126.881 18.5447 126.694 19.3447 126.422 20.0447C126.146 20.7788 125.713 21.4439 125.154 21.9937C124.604 22.5537 123.939 22.9857 123.206 23.2617C122.506 23.5337 121.706 23.7197 120.536 23.7737C119.362 23.8277 118.988 23.8397 116 23.8397C113.012 23.8397 112.638 23.8267 111.465 23.7737C110.295 23.7207 109.495 23.5337 108.795 23.2617C108.061 22.9857 107.396 22.553 106.846 21.9937C106.286 21.4444 105.853 20.7796 105.577 20.0457C105.306 19.3457 105.12 18.5457 105.066 17.3757C105.012 16.2007 105 15.8267 105 12.8397C105 9.85172 105.013 9.47772 105.066 8.30572C105.119 7.13372 105.306 6.33372 105.577 5.63372C105.854 4.8998 106.287 4.23503 106.847 3.68572C107.396 3.12622 108.06 2.69317 108.794 2.41672C109.494 2.14572 110.294 1.95972 111.464 1.90572H111.465ZM120.445 3.88572C119.285 3.83272 118.937 3.82172 116 3.82172C113.063 3.82172 112.715 3.83272 111.555 3.88572C110.482 3.93472 109.9 4.11372 109.512 4.26472C108.999 4.46472 108.632 4.70172 108.247 5.08672C107.882 5.44177 107.601 5.874 107.425 6.35172C107.274 6.73972 107.095 7.32172 107.046 8.39472C106.993 9.55472 106.982 9.90272 106.982 12.8397C106.982 15.7767 106.993 16.1247 107.046 17.2847C107.095 18.3577 107.274 18.9397 107.425 19.3277C107.601 19.8047 107.882 20.2377 108.247 20.5927C108.602 20.9577 109.035 21.2387 109.512 21.4147C109.9 21.5657 110.482 21.7447 111.555 21.7937C112.715 21.8467 113.062 21.8577 116 21.8577C118.938 21.8577 119.285 21.8467 120.445 21.7937C121.518 21.7447 122.1 21.5657 122.488 21.4147C123.001 21.2147 123.368 20.9777 123.753 20.5927C124.118 20.2377 124.399 19.8047 124.575 19.3277C124.726 18.9397 124.905 18.3577 124.954 17.2847C125.007 16.1247 125.018 15.7767 125.018 12.8397C125.018 9.90272 125.007 9.55472 124.954 8.39472C124.905 7.32172 124.726 6.73972 124.575 6.35172C124.375 5.83872 124.138 5.47172 123.753 5.08672C123.398 4.72179 122.966 4.44093 122.488 4.26472C122.1 4.11372 121.518 3.93472 120.445 3.88572ZM114.595 16.2307C115.38 16.5574 116.253 16.6014 117.067 16.3554C117.88 16.1094 118.583 15.5886 119.056 14.882C119.528 14.1753 119.74 13.3266 119.656 12.4808C119.572 11.6351 119.197 10.8447 118.595 10.2447C118.211 9.8612 117.747 9.56753 117.236 9.38487C116.725 9.2022 116.18 9.13508 115.64 9.18834C115.101 9.24159 114.579 9.4139 114.114 9.69285C113.648 9.97181 113.251 10.3505 112.949 10.8016C112.648 11.2527 112.45 11.765 112.371 12.3017C112.291 12.8384 112.331 13.386 112.489 13.9052C112.646 14.4245 112.916 14.9023 113.281 15.3044C113.645 15.7066 114.094 16.0229 114.595 16.2307ZM112.002 8.84172C112.527 8.3167 113.15 7.90022 113.836 7.61608C114.522 7.33194 115.258 7.1857 116 7.1857C116.742 7.1857 117.478 7.33194 118.164 7.61608C118.85 7.90022 119.473 8.3167 119.998 8.84172C120.523 9.36675 120.939 9.99004 121.224 10.676C121.508 11.362 121.654 12.0972 121.654 12.8397C121.654 13.5822 121.508 14.3174 121.224 15.0034C120.939 15.6894 120.523 16.3127 119.998 16.8377C118.938 17.8981 117.5 18.4937 116 18.4937C114.5 18.4937 113.062 17.8981 112.002 16.8377C110.942 15.7774 110.346 14.3393 110.346 12.8397C110.346 11.3402 110.942 9.90206 112.002 8.84172ZM122.908 8.02772C123.038 7.90499 123.142 7.7574 123.214 7.5937C123.286 7.42999 123.325 7.25349 123.327 7.07465C123.33 6.89581 123.297 6.71827 123.229 6.55253C123.162 6.38679 123.062 6.23623 122.936 6.10976C122.809 5.98329 122.659 5.88348 122.493 5.81624C122.327 5.749 122.15 5.7157 121.971 5.7183C121.792 5.72091 121.616 5.75938 121.452 5.83142C121.288 5.90346 121.141 6.00762 121.018 6.13772C120.779 6.39075 120.649 6.72684 120.654 7.07465C120.659 7.42246 120.799 7.7546 121.045 8.00056C121.291 8.24653 121.623 8.38695 121.971 8.39202C122.319 8.39709 122.655 8.26641 122.908 8.02772Z" fill="#E94444"/>
<defs>
<clipPath id="clip0_17_66">
<rect width="24" height="24" fill="white" transform="translate(34.6665 0.839722)"/>
</clipPath>
<clipPath id="clip1_17_66">
<rect width="24" height="24" fill="white" transform="translate(69.3335 0.839722)"/>
</clipPath>
</defs>
</svg>
