<svg width="1611" height="4105" viewBox="0 0 1611 4105" fill="none" xmlns="http://www.w3.org/2000/svg">
<path d="M1483.99 2.5C1501.49 50.3333 1381.99 140.2 763.99 117C-8.50952 88 -33.0089 466 130.491 570.5C293.991 675 432.992 797.5 273.492 889.5C113.992 981.5 5.99078 781.5 561.991 744.5C1117.99 707.5 1580.49 664.5 1528.99 1171.5C1477.49 1678.5 607.001 1794.5 320.001 1686.5C-59.7569 1543.59 7.23516 1791.35 151.501 1847.5C389.001 1939.94 513.009 1809.5 860.501 1776.5C1510.2 1714.8 1667.99 2139 1113.99 2128.5C559.993 2118 234.992 1930 101.992 2155C-31.008 2380 -53.1639 3139.68 547.491 2979C1140 2820.5 1830.5 2837.5 1476.5 3096.5C1072.34 3392.2 655.728 3202.72 925.491 3146.5C1139 3102 974.001 3202 569.991 3322.5C-38.426 3503.97 -14.5077 4191.5 385.992 3997C786.492 3802.5 1402.49 3879 1526.99 4083" stroke="url(#paint0_linear_0_3)" stroke-width="10"/>
<path d="M1420.5 2.5C1422.84 56.6667 1331 155.1 945.003 115.5C559.003 75.9 236.17 245 123.003 334.5C38.1699 402.333 -44.1996 597.7 281 730.5C545 838.308 98.4998 1012.5 98.4998 878.5C98.4998 803.832 685.003 648 1272 785.5C1677 880.367 1727.5 1237.43 1358 1505C1213 1610 1169.62 1627.82 945 1678C898 1688.5 702 1733 398.5 1688.5C264.769 1668.89 565.656 1640.27 637.5 1678C707 1714.5 581.997 1755.5 449.5 1725C220.92 1672.38 -45.0026 1658 10.4999 1759.5C26.3311 1781.33 202 1902.58 654.5 1783.5C731.385 1763.27 1290 1542 1367.5 1936C1445 2330 638.384 2117.15 418 2081C195.5 2044.5 -19.0002 2093 40.9998 2501.5C101 2910 133.501 2231 64.5009 2492.5C-4.49911 2754 115.999 3099.5 782.499 2998.5C1021 2962.36 1471.88 2919 1487.5 3127.5C1513.5 3474.5 623.845 3060.34 934.5 3141.5C1267.5 3228.5 581 3212 277 3509C-26.9996 3806 73.5004 4071.5 363.5 4029C653.5 3986.5 1341 3668 1553 4103" stroke="url(#paint1_linear_0_3)" stroke-width="6"/>
<defs>
<linearGradient id="paint0_linear_0_3" x1="1637.5" y1="16.5" x2="1603.5" y2="4142" gradientUnits="userSpaceOnUse">
<stop stop-color="#EA4444" stop-opacity="0"/>
<stop offset="0.0255944" stop-color="#EA4444"/>
<stop offset="0.973676" stop-color="#EA4444"/>
<stop offset="0.984857" stop-color="#EA4444" stop-opacity="0"/>
</linearGradient>
<linearGradient id="paint1_linear_0_3" x1="1541" y1="-36.5" x2="1643.5" y2="4066.5" gradientUnits="userSpaceOnUse">
<stop offset="0.00810127" stop-color="#EA4444" stop-opacity="0"/>
<stop offset="0.0376586" stop-color="#EA4444"/>
<stop offset="0.971513" stop-color="#EA4444"/>
<stop offset="1" stop-color="#EA4444" stop-opacity="0"/>
</linearGradient>
</defs>
</svg>
