<svg width="393" height="2371" viewBox="0 0 393 2371" fill="none" xmlns="http://www.w3.org/2000/svg">
<path d="M345.482 1C349.476 28.7704 322.202 80.944 181.152 67.4748C4.84013 50.6384 24.3247 193.109 48.7969 260C71.2969 321.5 125.297 448.529 52.2969 493C-7.27093 529.288 15.8841 419.506 132.297 415C209.797 412 404.797 419.5 347.797 479C287.297 542.154 174.297 479 79.797 555.5C-13.4589 630.993 385.297 650.5 347.797 685.5C292.033 737.546 21.1996 697.567 52.2971 773C126.297 952.5 295.06 795.701 354.297 865.5C418.797 941.5 144.297 1032 42.2969 1004.5C-116.832 961.598 254.774 904.764 314.797 1060.5C345.052 1139 143.297 1327 179.297 1271.5C304.074 1079.14 435.849 1324.99 242.297 1392C-172.203 1535.5 82.7973 1648.5 356.797 1768.5C439.968 1804.93 364.624 1922.27 177.297 1960.5C-43.2026 2005.5 17.0635 2070.14 43.7974 2093.5C138.797 2176.5 344.297 2033.5 355.297 2370" stroke="url(#paint0_linear_39_7)" stroke-width="4"/>
<path d="M328.724 1C329.237 30.3665 296.072 90.7523 224.954 72.7628C118.506 45.8365 67.4267 72.2122 42.5435 120.735C6.34233 191.327 55.8802 232.086 78.0261 319.252C101.015 409.736 46.5148 537.66 51.5393 465.118C57.5364 378.535 226.209 399.353 319.407 436.647C515.311 515.04 70.5298 495.539 67.0315 591.093C64.6194 656.978 376.463 637.201 335.399 671.826C248.442 745.149 86.1299 665.257 66.5317 720.578C43.0433 786.88 183.059 928.991 201.965 854.743C217.458 793.901 92.2313 913.3 171.98 862.543C223.455 829.782 323.95 827.288 352.391 878.534C420.358 1001 -76.7334 1075.99 26.0516 1014.65C195.968 913.245 308.913 977.321 308.913 1068.08C308.913 1158.84 231.749 1190.05 184.973 1212C29.768 1284.82 475.83 1180.02 328.903 1345.77C167.282 1528.1 488.965 1333.19 340.897 1367.61C-110.381 1472.53 53.0386 1690.48 184.973 1658.95C362.886 1616.44 360.387 1794.5 360.387 1823.93C360.387 1975.5 90.6733 1997.7 144.493 1927.67C193.331 1864.13 343.064 1923.4 132.999 1965.51C-49.9109 2002.17 55.0374 2160.22 183.974 2147.25C253.666 2140.24 368.383 2174.16 368.383 2329" stroke="url(#paint1_linear_39_7)" stroke-width="2"/>
<defs>
<linearGradient id="paint0_linear_39_7" x1="380.518" y1="9.12793" x2="330.326" y2="2403.36" gradientUnits="userSpaceOnUse">
<stop stop-color="#EA4444" stop-opacity="0"/>
<stop offset="0.0255944" stop-color="#EA4444"/>
<stop offset="0.973676" stop-color="#EA4444"/>
<stop offset="0.984857" stop-color="#EA4444" stop-opacity="0"/>
</linearGradient>
<linearGradient id="paint1_linear_39_7" x1="355.219" y1="-20.1439" x2="513.971" y2="2309.41" gradientUnits="userSpaceOnUse">
<stop offset="0.00810127" stop-color="#EA4444" stop-opacity="0"/>
<stop offset="0.0376586" stop-color="#EA4444"/>
<stop offset="0.978067" stop-color="#EA4444"/>
<stop offset="1" stop-color="#EA4444" stop-opacity="0"/>
</linearGradient>
</defs>
</svg>
