<svg width="430" height="2442" viewBox="0 0 430 2442" fill="none" xmlns="http://www.w3.org/2000/svg">
<g clip-path="url(#clip0_31_2)">
<path d="M371.482 0C375.477 27.7704 348.202 79.944 207.152 66.4748C30.8402 49.6384 50.3247 192.109 74.7969 259C97.2969 320.5 151.297 447.529 78.2969 492C18.7291 528.288 41.8842 418.506 158.297 414C235.797 411 430.797 418.5 373.797 478C313.297 541.154 200.297 478 105.797 554.5C12.5412 629.993 411.297 649.5 373.797 684.5C318.033 736.546 47.1996 696.567 78.2971 772C152.297 951.5 321.06 794.701 380.297 864.5C444.797 940.5 170.297 1031 68.2969 1003.5C-90.8316 960.598 280.774 903.764 340.797 1059.5C371.052 1138 169.297 1326 205.297 1270.5C330.074 1078.14 461.849 1323.99 268.297 1391C-146.203 1534.5 108.797 1647.5 382.797 1767.5C465.968 1803.93 390.624 1921.27 203.297 1959.5C-17.2026 2004.5 43.0635 2069.14 69.7974 2092.5C164.797 2175.5 370.297 2032.5 381.297 2369" stroke="url(#paint0_linear_31_2)" stroke-width="4"/>
<path d="M354.724 0C355.237 29.3665 322.072 89.7523 250.954 71.7628C144.506 44.8365 93.4267 71.2122 68.5435 119.735C32.3423 190.327 81.8802 231.086 104.026 318.252C127.015 408.736 72.5148 536.66 77.5393 464.118C83.5364 377.535 252.209 398.353 345.407 435.647C541.311 514.04 96.5298 494.539 93.0315 590.093C90.6194 655.978 402.463 636.201 361.399 670.826C274.442 744.149 112.13 664.257 92.5317 719.578C69.0433 785.88 209.059 927.991 227.965 853.743C243.458 792.901 118.231 912.3 197.98 861.543C249.455 828.782 349.95 826.288 378.391 877.534C446.358 999.999 -50.7334 1074.99 52.0516 1013.65C221.968 912.245 334.913 976.321 334.913 1067.08C334.913 1157.84 257.749 1189.05 210.973 1211C55.768 1283.82 501.83 1179.02 354.903 1344.77C193.282 1527.1 514.965 1332.19 366.897 1366.61C-84.3809 1471.53 79.0386 1689.48 210.973 1657.95C388.886 1615.44 386.387 1793.5 386.387 1822.93C386.387 1974.5 116.673 1996.7 170.493 1926.67C219.331 1863.13 369.064 1922.4 158.999 1964.51C-23.9109 2001.17 81.0374 2159.22 209.974 2146.25C279.666 2139.24 394.383 2173.16 394.383 2328" stroke="url(#paint1_linear_31_2)" stroke-width="2"/>
</g>
<defs>
<linearGradient id="paint0_linear_31_2" x1="406.519" y1="8.12793" x2="356.326" y2="2402.36" gradientUnits="userSpaceOnUse">
<stop stop-color="#EA4444" stop-opacity="0"/>
<stop offset="0.0255944" stop-color="#EA4444"/>
<stop offset="0.973676" stop-color="#EA4444"/>
<stop offset="0.984857" stop-color="#EA4444" stop-opacity="0"/>
</linearGradient>
<linearGradient id="paint1_linear_31_2" x1="381.219" y1="-21.1439" x2="539.971" y2="2308.41" gradientUnits="userSpaceOnUse">
<stop offset="0.00810127" stop-color="#EA4444" stop-opacity="0"/>
<stop offset="0.0376586" stop-color="#EA4444"/>
<stop offset="0.978067" stop-color="#EA4444"/>
<stop offset="1" stop-color="#EA4444" stop-opacity="0"/>
</linearGradient>
<clipPath id="clip0_31_2">
<rect width="430" height="2442" fill="white"/>
</clipPath>
</defs>
</svg>
